<?xml version="1.0" encoding="UTF-8" standalone="no"?>
<!DOCTYPE svg PUBLIC "-//W3C//DTD SVG 1.1//EN" "http://www.w3.org/Graphics/SVG/1.1/DTD/svg11.dtd">
<svg width="100%" height="100%" viewBox="0 0 48 48" version="1.1" xmlns="http://www.w3.org/2000/svg" xmlns:xlink="http://www.w3.org/1999/xlink" xml:space="preserve" xmlns:serif="http://www.serif.com/" style="fill-rule:evenodd;clip-rule:evenodd;stroke-linejoin:round;stroke-miterlimit:2;">
    <path d="M17,6C21.475,4.654 25.807,4.665 30,6L27,13L20,13L17,6Z" style="fill:white;"/>
    <path d="M20,15L14,34L23.5,42L33,34L27,15L20,15ZM21,17L26,17L31,33L23.5,39L16,33L21,17Z" style="fill:white;"/>
    <g transform="matrix(1,0,0,1,2,2)">
        <path d="M28,25L18,35L19,37L29,27L28,25Z" style="fill:white;"/>
    </g>
    <g transform="matrix(1,0,0,1,1,3)">
        <path d="M14,31L16,32L28,20L27,18L14,31Z" style="fill:white;"/>
    </g>
    <path d="M18,23L26,15L27,17L18,26L18,23Z" style="fill:white;"/>
    <g transform="matrix(1,0,0,1,-1,0)">
        <path d="M30,17L33,26L38,28L35,19L30,17Z" style="fill:white;"/>
    </g>
</svg>
